<svg xmlns="http://www.w3.org/2000/svg" viewBox="0 0 1000 185.343">
    <path fill="#2db400" d="M 133.297,0 133.297,93.512 69.246,0 l -69.246,0 0,185.343 69.01,0 0,-93.512 64.056,93.512 69.23,0 L 202.297,0 133.297,0 Z"></path>
    <path transform="translate(217.073,0)" fill="#2db400" d="m 94.758,118.297 16.251,-61.138 1.887,0 L 129.148,118.297 94.758,118.297 Z m 56.528,-118.297 -78.692,0 -72.594,185.343 76.758,0 6.702,-24.205 56.979,0 6.712,24.205 76.738,0 -72.605,-185.343 Z"></path>
    <path transform="translate(405.64,0)" fill="#2db400" d="m 145.179,0 -34.02,111.753 -1.897,0 L 75.266,0 0,0 l 77.646,185.343 65.128,0 L 220.42,0 145.179,0 Z"></path>
    <path transform="translate(640.843,0)" fill="#2db400" d="m 0,0 139.887,0 0,48.266 -71.543,0 0,21.82 65.912,0 0,45.553 -65.912,0 0,21.425 73.743,0 0,48.276 L 0,185.343 0,0 Z"></path>
    <path transform="translate(809.017,0)" fill="#2db400" d="m 99.794,78.256 c -4.02,3.266 -11.779,4.876 -18.179,4.876 l -14.82,0 0,-36.507 14.528,0 c 6.969,0 14.912,1.666 18.758,4.984 C 103.922,54.948 105.697,59.481 105.697,65.22 105.697,70.671 103.825,75.015 99.794,78.256 Z m 33.907,37.753 c 24.528,-6.825 40.333,-24.507 40.333,-52.928 0,-47.743 -37.902,-63.081 -87.83,-63.081 l -86.205,0 0,185.343 68.984,0 0,-57.876 41.194,57.876 79.302,0 -55.779,-69.333 z"></path>
</svg>